<svg xmlns="http://www.w3.org/2000/svg" xmlns:xlink="http://www.w3.org/1999/xlink" viewBox="0 0 200 200"><defs><style>.cls-1{fill:none;}.cls-2{opacity:0.55;}.cls-3{clip-path:url(#clip-path);}.cls-4{fill:#f99f27;}.cls-5{fill:#f99e27;}.cls-6{fill:#f99d27;}.cls-7{fill:#f99c27;}.cls-8{fill:#f99b27;}.cls-9{fill:#f89b27;}.cls-10{fill:#f89a27;}.cls-11{fill:#f89927;}.cls-12{fill:#f89926;}.cls-13{fill:#f89826;}.cls-14{fill:#f89726;}.cls-15{fill:#f89626;}.cls-16{fill:#f89526;}.cls-17{fill:#f79426;}.cls-18{fill:#f79326;}.cls-19{fill:#f79226;}.cls-20{fill:#f79125;}.cls-21{fill:#f79025;}.cls-22{fill:#f78f25;}.cls-23{fill:#f78e25;}.cls-24{fill:#f78d25;}.cls-25{fill:#f68c25;}.cls-26{fill:#f68b25;}.cls-27{fill:#f68a25;}.cls-28{fill:#f68924;}.cls-29{fill:#f68824;}.cls-30{fill:#f68724;}.cls-31{fill:#f68624;}.cls-32{fill:#f58524;}.cls-33{fill:#f58424;}.cls-34{fill:#f58324;}.cls-35{fill:#f58124;}.cls-36{fill:#f58023;}.cls-37{fill:#f57f23;}.cls-38{fill:#f57e23;}.cls-39{fill:#f47d23;}.cls-40{fill:#f47c23;}.cls-41{fill:#f47b23;}.cls-42{fill:#f47a23;}.cls-43{fill:#f47823;}.cls-44{fill:#f47723;}.cls-45{fill:#f47623;}.cls-46{fill:#f47423;}.cls-47{fill:#f37323;}.cls-48{fill:#f37222;}.cls-49{fill:#f37022;}.cls-50{fill:#f36f22;}.cls-51{fill:#f36d22;}.cls-52{fill:#f36c22;}.cls-53{fill:#f26a22;}.cls-54{fill:#f26822;}.cls-55{fill:#f26722;}.cls-56{fill:#f26522;}.cls-57{fill:#f26322;}.cls-58{clip-path:url(#clip-path-2);}.cls-59{clip-path:url(#clip-path-3);}.cls-60{clip-path:url(#clip-path-4);}.cls-61{clip-path:url(#clip-path-5);}.cls-62{clip-path:url(#clip-path-6);}.cls-63{clip-path:url(#clip-path-7);}.cls-64{fill:#e52775;}.cls-65{fill:#e52b75;}.cls-66{fill:#e52f75;}.cls-67{fill:#e63275;}.cls-68{fill:#e63675;}.cls-69{fill:#e63875;}.cls-70{fill:#e63b75;}.cls-71{fill:#e63e74;}.cls-72{fill:#e64074;}.cls-73{fill:#e74374;}.cls-74{fill:#e74574;}.cls-75{fill:#e74773;}.cls-76{fill:#e74973;}.cls-77{fill:#e74c73;}.cls-78{fill:#e74e73;}.cls-79{fill:#e85073;}.cls-80{fill:#e85272;}.cls-81{fill:#e85372;}.cls-82{fill:#e85572;}.cls-83{fill:#e85772;}.cls-84{fill:#e95971;}.cls-85{fill:#e95a71;}.cls-86{fill:#e95c71;}.cls-87{fill:#e95d70;}.cls-88{fill:#e95f70;}.cls-89{fill:#e96070;}.cls-90{fill:#e96270;}.cls-91{fill:#ea636f;}.cls-92{fill:#ea656f;}.cls-93{fill:#ea666f;}.cls-94{fill:#ea686e;}.cls-95{fill:#ea696e;}.cls-96{fill:#ea6a6e;}.cls-97{fill:#eb6b6d;}.cls-98{fill:#eb6d6d;}.cls-99{fill:#eb6e6d;}.cls-100{fill:#eb6f6c;}.cls-101{fill:#eb706c;}.cls-102{fill:#eb716c;}.cls-103{fill:#ec726b;}.cls-104{fill:#ec736b;}.cls-105{fill:#ec756b;}.cls-106{fill:#ec766a;}.cls-107{fill:#ec776a;}.cls-108{fill:#ec786a;}.cls-109{fill:#ec7969;}.cls-110{fill:#ed7969;}.cls-111{fill:#ed7a69;}.cls-112{fill:#ed7b68;}.cls-113{fill:#ed7c68;}.cls-114{fill:#ed7d68;}.cls-115{fill:#ed7e67;}.cls-116{fill:#ed7f67;}.cls-117{fill:#ed8067;}.cls-118{fill:#ee8066;}.cls-119{fill:#ee8166;}.cls-120{fill:#ee8266;}.cls-121{fill:#ee8365;}.cls-122{fill:#ee8465;}.cls-123{fill:#ee8464;}.cls-124{fill:#ee8564;}.cls-125{fill:#ee8664;}.cls-126{fill:#ef8663;}.cls-127{fill:#ef8763;}.cls-128{fill:#ef8863;}.cls-129{fill:#ef8962;}.cls-130{fill:#ef8a62;}.cls-131{fill:#ef8a61;}.cls-132{fill:#ef8b61;}.cls-133{fill:#ef8c61;}.cls-134{fill:#f08c60;}.cls-135{fill:#f08d60;}.cls-136{fill:#f08d5f;}.cls-137{fill:#f08e5f;}.cls-138{fill:#f08f5e;}.cls-139{fill:#f0905e;}.cls-140{fill:#f0905d;}.cls-141{fill:#f0915d;}.cls-142{fill:#f1925c;}.cls-143{fill:#f1935c;}.cls-144{fill:#f1945b;}.cls-145{fill:#f1955a;}.cls-146{fill:#f1965a;}.cls-147{fill:#f19659;}.cls-148{fill:#f19759;}.cls-149{fill:#f29758;}.cls-150{fill:#f29858;}.cls-151{fill:#f29957;}.cls-152{fill:#f29a57;}.cls-153{fill:#f29a56;}.cls-154{fill:#f29b56;}.cls-155{fill:#f29b55;}.cls-156{fill:#f29c55;}.cls-157{opacity:0.78;}.cls-158,.cls-159,.cls-160{fill:#ebf4e0;}.cls-159{opacity:0.81;}.cls-160{opacity:0.89;}.cls-161{fill:#90c960;}</style><clipPath id="clip-path"><circle class="cls-1" cx="91.971" cy="107.454" r="41.551"/></clipPath><clipPath id="clip-path-2"><circle class="cls-1" cx="104.618" cy="89.134" r="41.551"/></clipPath><clipPath id="clip-path-3"><circle class="cls-1" cx="100.904" cy="110.866" r="41.551"/></clipPath><clipPath id="clip-path-4"><circle class="cls-1" cx="110.866" cy="101.313" r="41.551"/></clipPath><clipPath id="clip-path-5"><circle class="cls-1" cx="89.134" cy="91.477" r="41.551"/></clipPath><clipPath id="clip-path-6"><circle class="cls-1" cx="96.196" cy="91.477" r="41.551"/></clipPath><clipPath id="clip-path-7"><circle class="cls-1" cx="100.904" cy="97.187" r="41.551"/></clipPath></defs><g id="Layer_2" data-name="Layer 2"><g id="Layer_3" data-name="Layer 3"><g id="Layer_4" data-name="Layer 4"><g class="cls-2"><g class="cls-3"><rect class="cls-4" x="133.218" y="63.147" width="3.06" height="88.614"/><rect class="cls-4" x="132.208" y="63.147" width="1.01" height="88.614"/><rect class="cls-4" x="131.198" y="63.147" width="1.01" height="88.614"/><rect class="cls-4" x="130.189" y="63.147" width="1.01" height="88.614"/><rect class="cls-4" x="129.179" y="63.147" width="1.01" height="88.614"/><rect class="cls-4" x="128.169" y="63.147" width="1.01" height="88.614"/><rect class="cls-4" x="127.159" y="63.147" width="1.01" height="88.614"/><rect class="cls-5" x="126.15" y="63.147" width="1.01" height="88.614"/><rect class="cls-5" x="125.14" y="63.147" width="1.01" height="88.614"/><rect class="cls-5" x="124.13" y="63.147" width="1.01" height="88.614"/><rect class="cls-5" x="123.12" y="63.147" width="1.01" height="88.614"/><rect class="cls-5" x="122.11" y="63.147" width="1.01" height="88.614"/><rect class="cls-5" x="121.101" y="63.147" width="1.01" height="88.614"/><rect class="cls-5" x="120.091" y="63.147" width="1.01" height="88.614"/><rect class="cls-6" x="119.081" y="63.147" width="1.01" height="88.614"/><rect class="cls-6" x="118.071" y="63.147" width="1.01" height="88.614"/><rect class="cls-6" x="117.061" y="63.147" width="1.01" height="88.614"/><rect class="cls-6" x="116.052" y="63.147" width="1.01" height="88.614"/><rect class="cls-6" x="115.042" y="63.147" width="1.01" height="88.614"/><rect class="cls-7" x="114.032" y="63.147" width="1.01" height="88.614"/><rect class="cls-7" x="113.022" y="63.147" width="1.01" height="88.614"/><rect class="cls-7" x="112.012" y="63.147" width="1.01" height="88.614"/><rect class="cls-8" x="111.003" y="63.147" width="1.01" height="88.614"/><rect class="cls-8" x="109.993" y="63.147" width="1.01" height="88.614"/><rect class="cls-9" x="108.983" y="63.147" width="1.01" height="88.614"/><rect class="cls-10" x="107.973" y="63.147" width="1.01" height="88.614"/><rect class="cls-10" x="106.964" y="63.147" width="1.01" height="88.614"/><rect class="cls-11" x="105.954" y="63.147" width="1.01" height="88.614"/><rect class="cls-12" x="104.944" y="63.147" width="1.01" height="88.614"/><rect class="cls-12" x="103.934" y="63.147" width="1.01" height="88.614"/><rect class="cls-13" x="102.924" y="63.147" width="1.01" height="88.614"/><rect class="cls-13" x="101.915" y="63.147" width="1.01" height="88.614"/><rect class="cls-14" x="100.905" y="63.147" width="1.01" height="88.614"/><rect class="cls-14" x="99.895" y="63.147" width="1.01" height="88.614"/><rect class="cls-15" x="98.885" y="63.147" width="1.01" height="88.614"/><rect class="cls-16" x="97.875" y="63.147" width="1.01" height="88.614"/><rect class="cls-16" x="96.866" y="63.147" width="1.01" height="88.614"/><rect class="cls-17" x="95.856" y="63.147" width="1.01" height="88.614"/><rect class="cls-17" x="94.846" y="63.147" width="1.01" height="88.614"/><rect class="cls-18" x="93.836" y="63.147" width="1.01" height="88.614"/><rect class="cls-19" x="92.826" y="63.147" width="1.01" height="88.614"/><rect class="cls-19" x="91.817" y="63.147" width="1.01" height="88.614"/><rect class="cls-20" x="90.807" y="63.147" width="1.01" height="88.614"/><rect class="cls-21" x="89.797" y="63.147" width="1.01" height="88.614"/><rect class="cls-21" x="88.787" y="63.147" width="1.01" height="88.614"/><rect class="cls-22" x="87.778" y="63.147" width="1.01" height="88.614"/><rect class="cls-23" x="86.768" y="63.147" width="1.01" height="88.614"/><rect class="cls-24" x="85.758" y="63.147" width="1.01" height="88.614"/><rect class="cls-24" x="84.748" y="63.147" width="1.01" height="88.614"/><rect class="cls-25" x="83.738" y="63.147" width="1.01" height="88.614"/><rect class="cls-26" x="82.729" y="63.147" width="1.01" height="88.614"/><rect class="cls-27" x="81.719" y="63.147" width="1.01" height="88.614"/><rect class="cls-28" x="80.709" y="63.147" width="1.01" height="88.614"/><rect class="cls-29" x="79.699" y="63.147" width="1.01" height="88.614"/><rect class="cls-30" x="78.689" y="63.147" width="1.01" height="88.614"/><rect class="cls-30" x="77.68" y="63.147" width="1.01" height="88.614"/><rect class="cls-31" x="76.67" y="63.147" width="1.01" height="88.614"/><rect class="cls-32" x="75.66" y="63.147" width="1.01" height="88.614"/><rect class="cls-33" x="74.65" y="63.147" width="1.01" height="88.614"/><rect class="cls-34" x="73.64" y="63.147" width="1.01" height="88.614"/><rect class="cls-35" x="72.631" y="63.147" width="1.01" height="88.614"/><rect class="cls-36" x="71.621" y="63.147" width="1.01" height="88.614"/><rect class="cls-37" x="70.611" y="63.147" width="1.01" height="88.614"/><rect class="cls-38" x="69.601" y="63.147" width="1.01" height="88.614"/><rect class="cls-39" x="68.591" y="63.147" width="1.01" height="88.614"/><rect class="cls-40" x="67.582" y="63.147" width="1.01" height="88.614"/><rect class="cls-41" x="66.572" y="63.147" width="1.01" height="88.614"/><rect class="cls-42" x="65.562" y="63.147" width="1.01" height="88.614"/><rect class="cls-43" x="64.552" y="63.147" width="1.01" height="88.614"/><rect class="cls-44" x="63.543" y="63.147" width="1.01" height="88.614"/><rect class="cls-45" x="62.533" y="63.147" width="1.01" height="88.614"/><rect class="cls-46" x="61.523" y="63.147" width="1.01" height="88.614"/><rect class="cls-47" x="60.513" y="63.147" width="1.01" height="88.614"/><rect class="cls-48" x="59.503" y="63.147" width="1.01" height="88.614"/><rect class="cls-49" x="58.494" y="63.147" width="1.01" height="88.614"/><rect class="cls-50" x="57.484" y="63.147" width="1.01" height="88.614"/><rect class="cls-51" x="56.474" y="63.147" width="1.01" height="88.614"/><rect class="cls-52" x="55.464" y="63.147" width="1.01" height="88.614"/><rect class="cls-53" x="54.454" y="63.147" width="1.01" height="88.614"/><rect class="cls-54" x="53.445" y="63.147" width="1.01" height="88.614"/><rect class="cls-55" x="52.435" y="63.147" width="1.01" height="88.614"/><rect class="cls-56" x="51.425" y="63.147" width="1.01" height="88.614"/><rect class="cls-57" x="50.415" y="63.147" width="1.01" height="88.614"/><rect class="cls-57" x="47.664" y="63.147" width="2.751" height="88.614"/></g></g><g class="cls-2"><g class="cls-58"><rect class="cls-4" x="145.864" y="44.827" width="3.06" height="88.614"/><rect class="cls-4" x="144.854" y="44.827" width="1.01" height="88.614"/><rect class="cls-4" x="143.845" y="44.827" width="1.01" height="88.614"/><rect class="cls-4" x="142.835" y="44.827" width="1.01" height="88.614"/><rect class="cls-4" x="141.825" y="44.827" width="1.01" height="88.614"/><rect class="cls-4" x="140.815" y="44.827" width="1.01" height="88.614"/><rect class="cls-4" x="139.805" y="44.827" width="1.01" height="88.614"/><rect class="cls-5" x="138.796" y="44.827" width="1.01" height="88.614"/><rect class="cls-5" x="137.786" y="44.827" width="1.01" height="88.614"/><rect class="cls-5" x="136.776" y="44.827" width="1.01" height="88.614"/><rect class="cls-5" x="135.766" y="44.827" width="1.01" height="88.614"/><rect class="cls-5" x="134.756" y="44.827" width="1.01" height="88.614"/><rect class="cls-5" x="133.747" y="44.827" width="1.01" height="88.614"/><rect class="cls-5" x="132.737" y="44.827" width="1.01" height="88.614"/><rect class="cls-6" x="131.727" y="44.827" width="1.01" height="88.614"/><rect class="cls-6" x="130.717" y="44.827" width="1.01" height="88.614"/><rect class="cls-6" x="129.708" y="44.827" width="1.01" height="88.614"/><rect class="cls-6" x="128.698" y="44.827" width="1.01" height="88.614"/><rect class="cls-6" x="127.688" y="44.827" width="1.01" height="88.614"/><rect class="cls-7" x="126.678" y="44.827" width="1.01" height="88.614"/><rect class="cls-7" x="125.668" y="44.827" width="1.01" height="88.614"/><rect class="cls-7" x="124.659" y="44.827" width="1.01" height="88.614"/><rect class="cls-8" x="123.649" y="44.827" width="1.01" height="88.614"/><rect class="cls-8" x="122.639" y="44.827" width="1.01" height="88.614"/><rect class="cls-9" x="121.629" y="44.827" width="1.01" height="88.614"/><rect class="cls-10" x="120.619" y="44.827" width="1.01" height="88.614"/><rect class="cls-10" x="119.61" y="44.827" width="1.01" height="88.614"/><rect class="cls-11" x="118.6" y="44.827" width="1.01" height="88.614"/><rect class="cls-12" x="117.59" y="44.827" width="1.01" height="88.614"/><rect class="cls-12" x="116.58" y="44.827" width="1.01" height="88.614"/><rect class="cls-13" x="115.57" y="44.827" width="1.01" height="88.614"/><rect class="cls-13" x="114.561" y="44.827" width="1.01" height="88.614"/><rect class="cls-14" x="113.551" y="44.827" width="1.01" height="88.614"/><rect class="cls-14" x="112.541" y="44.827" width="1.01" height="88.614"/><rect class="cls-15" x="111.531" y="44.827" width="1.01" height="88.614"/><rect class="cls-16" x="110.522" y="44.827" width="1.01" height="88.614"/><rect class="cls-16" x="109.512" y="44.827" width="1.01" height="88.614"/><rect class="cls-17" x="108.502" y="44.827" width="1.01" height="88.614"/><rect class="cls-17" x="107.492" y="44.827" width="1.01" height="88.614"/><rect class="cls-18" x="106.482" y="44.827" width="1.01" height="88.614"/><rect class="cls-19" x="105.473" y="44.827" width="1.01" height="88.614"/><rect class="cls-19" x="104.463" y="44.827" width="1.01" height="88.614"/><rect class="cls-20" x="103.453" y="44.827" width="1.01" height="88.614"/><rect class="cls-21" x="102.443" y="44.827" width="1.01" height="88.614"/><rect class="cls-21" x="101.433" y="44.827" width="1.01" height="88.614"/><rect class="cls-22" x="100.424" y="44.827" width="1.01" height="88.614"/><rect class="cls-23" x="99.414" y="44.827" width="1.01" height="88.614"/><rect class="cls-24" x="98.404" y="44.827" width="1.01" height="88.614"/><rect class="cls-24" x="97.394" y="44.827" width="1.01" height="88.614"/><rect class="cls-25" x="96.384" y="44.827" width="1.01" height="88.614"/><rect class="cls-26" x="95.375" y="44.827" width="1.01" height="88.614"/><rect class="cls-27" x="94.365" y="44.827" width="1.01" height="88.614"/><rect class="cls-28" x="93.355" y="44.827" width="1.01" height="88.614"/><rect class="cls-29" x="92.345" y="44.827" width="1.01" height="88.614"/><rect class="cls-30" x="91.335" y="44.827" width="1.01" height="88.614"/><rect class="cls-30" x="90.326" y="44.827" width="1.01" height="88.614"/><rect class="cls-31" x="89.316" y="44.827" width="1.01" height="88.614"/><rect class="cls-32" x="88.306" y="44.827" width="1.01" height="88.614"/><rect class="cls-33" x="87.296" y="44.827" width="1.01" height="88.614"/><rect class="cls-34" x="86.287" y="44.827" width="1.01" height="88.614"/><rect class="cls-35" x="85.277" y="44.827" width="1.01" height="88.614"/><rect class="cls-36" x="84.267" y="44.827" width="1.01" height="88.614"/><rect class="cls-37" x="83.257" y="44.827" width="1.01" height="88.614"/><rect class="cls-38" x="82.247" y="44.827" width="1.01" height="88.614"/><rect class="cls-39" x="81.238" y="44.827" width="1.01" height="88.614"/><rect class="cls-40" x="80.228" y="44.827" width="1.01" height="88.614"/><rect class="cls-41" x="79.218" y="44.827" width="1.01" height="88.614"/><rect class="cls-42" x="78.208" y="44.827" width="1.01" height="88.614"/><rect class="cls-43" x="77.198" y="44.827" width="1.01" height="88.614"/><rect class="cls-44" x="76.189" y="44.827" width="1.01" height="88.614"/><rect class="cls-45" x="75.179" y="44.827" width="1.01" height="88.614"/><rect class="cls-46" x="74.169" y="44.827" width="1.01" height="88.614"/><rect class="cls-47" x="73.159" y="44.827" width="1.01" height="88.614"/><rect class="cls-48" x="72.149" y="44.827" width="1.01" height="88.614"/><rect class="cls-49" x="71.14" y="44.827" width="1.01" height="88.614"/><rect class="cls-50" x="70.13" y="44.827" width="1.01" height="88.614"/><rect class="cls-51" x="69.12" y="44.827" width="1.01" height="88.614"/><rect class="cls-52" x="68.11" y="44.827" width="1.01" height="88.614"/><rect class="cls-53" x="67.101" y="44.827" width="1.01" height="88.614"/><rect class="cls-54" x="66.091" y="44.827" width="1.01" height="88.614"/><rect class="cls-55" x="65.081" y="44.827" width="1.01" height="88.614"/><rect class="cls-56" x="64.071" y="44.827" width="1.01" height="88.614"/><rect class="cls-57" x="63.061" y="44.827" width="1.01" height="88.614"/><rect class="cls-57" x="60.311" y="44.827" width="2.751" height="88.614"/></g></g><g class="cls-2"><g class="cls-59"><rect class="cls-4" x="142.151" y="66.559" width="3.06" height="88.614"/><rect class="cls-4" x="141.141" y="66.559" width="1.01" height="88.614"/><rect class="cls-4" x="140.131" y="66.559" width="1.01" height="88.614"/><rect class="cls-4" x="139.121" y="66.559" width="1.01" height="88.614"/><rect class="cls-4" x="138.111" y="66.559" width="1.01" height="88.614"/><rect class="cls-4" x="137.102" y="66.559" width="1.01" height="88.614"/><rect class="cls-4" x="136.092" y="66.559" width="1.01" height="88.614"/><rect class="cls-5" x="135.082" y="66.559" width="1.01" height="88.614"/><rect class="cls-5" x="134.072" y="66.559" width="1.01" height="88.614"/><rect class="cls-5" x="133.062" y="66.559" width="1.01" height="88.614"/><rect class="cls-5" x="132.053" y="66.559" width="1.01" height="88.614"/><rect class="cls-5" x="131.043" y="66.559" width="1.01" height="88.614"/><rect class="cls-5" x="130.033" y="66.559" width="1.01" height="88.614"/><rect class="cls-5" x="129.023" y="66.559" width="1.01" height="88.614"/><rect class="cls-6" x="128.014" y="66.559" width="1.01" height="88.614"/><rect class="cls-6" x="127.004" y="66.559" width="1.01" height="88.614"/><rect class="cls-6" x="125.994" y="66.559" width="1.01" height="88.614"/><rect class="cls-6" x="124.984" y="66.559" width="1.01" height="88.614"/><rect class="cls-6" x="123.974" y="66.559" width="1.01" height="88.614"/><rect class="cls-7" x="122.965" y="66.559" width="1.01" height="88.614"/><rect class="cls-7" x="121.955" y="66.559" width="1.01" height="88.614"/><rect class="cls-7" x="120.945" y="66.559" width="1.01" height="88.614"/><rect class="cls-8" x="119.935" y="66.559" width="1.01" height="88.614"/><rect class="cls-8" x="118.925" y="66.559" width="1.01" height="88.614"/><rect class="cls-9" x="117.916" y="66.559" width="1.01" height="88.614"/><rect class="cls-10" x="116.906" y="66.559" width="1.01" height="88.614"/><rect class="cls-10" x="115.896" y="66.559" width="1.01" height="88.614"/><rect class="cls-11" x="114.886" y="66.559" width="1.01" height="88.614"/><rect class="cls-12" x="113.876" y="66.559" width="1.01" height="88.614"/><rect class="cls-12" x="112.867" y="66.559" width="1.01" height="88.614"/><rect class="cls-13" x="111.857" y="66.559" width="1.01" height="88.614"/><rect class="cls-13" x="110.847" y="66.559" width="1.01" height="88.614"/><rect class="cls-14" x="109.837" y="66.559" width="1.01" height="88.614"/><rect class="cls-14" x="108.828" y="66.559" width="1.01" height="88.614"/><rect class="cls-15" x="107.818" y="66.559" width="1.01" height="88.614"/><rect class="cls-16" x="106.808" y="66.559" width="1.01" height="88.614"/><rect class="cls-16" x="105.798" y="66.559" width="1.01" height="88.614"/><rect class="cls-17" x="104.788" y="66.559" width="1.01" height="88.614"/><rect class="cls-17" x="103.779" y="66.559" width="1.01" height="88.614"/><rect class="cls-18" x="102.769" y="66.559" width="1.01" height="88.614"/><rect class="cls-19" x="101.759" y="66.559" width="1.01" height="88.614"/><rect class="cls-19" x="100.749" y="66.559" width="1.01" height="88.614"/><rect class="cls-20" x="99.739" y="66.559" width="1.01" height="88.614"/><rect class="cls-21" x="98.73" y="66.559" width="1.01" height="88.614"/><rect class="cls-21" x="97.72" y="66.559" width="1.01" height="88.614"/><rect class="cls-22" x="96.71" y="66.559" width="1.01" height="88.614"/><rect class="cls-23" x="95.7" y="66.559" width="1.01" height="88.614"/><rect class="cls-24" x="94.69" y="66.559" width="1.01" height="88.614"/><rect class="cls-24" x="93.681" y="66.559" width="1.01" height="88.614"/><rect class="cls-25" x="92.671" y="66.559" width="1.01" height="88.614"/><rect class="cls-26" x="91.661" y="66.559" width="1.01" height="88.614"/><rect class="cls-27" x="90.651" y="66.559" width="1.01" height="88.614"/><rect class="cls-28" x="89.641" y="66.559" width="1.01" height="88.614"/><rect class="cls-29" x="88.632" y="66.559" width="1.01" height="88.614"/><rect class="cls-30" x="87.622" y="66.559" width="1.01" height="88.614"/><rect class="cls-30" x="86.612" y="66.559" width="1.01" height="88.614"/><rect class="cls-31" x="85.602" y="66.559" width="1.01" height="88.614"/><rect class="cls-32" x="84.593" y="66.559" width="1.01" height="88.614"/><rect class="cls-33" x="83.583" y="66.559" width="1.01" height="88.614"/><rect class="cls-34" x="82.573" y="66.559" width="1.01" height="88.614"/><rect class="cls-35" x="81.563" y="66.559" width="1.01" height="88.614"/><rect class="cls-36" x="80.553" y="66.559" width="1.01" height="88.614"/><rect class="cls-37" x="79.544" y="66.559" width="1.01" height="88.614"/><rect class="cls-38" x="78.534" y="66.559" width="1.01" height="88.614"/><rect class="cls-39" x="77.524" y="66.559" width="1.01" height="88.614"/><rect class="cls-40" x="76.514" y="66.559" width="1.01" height="88.614"/><rect class="cls-41" x="75.504" y="66.559" width="1.01" height="88.614"/><rect class="cls-42" x="74.495" y="66.559" width="1.01" height="88.614"/><rect class="cls-43" x="73.485" y="66.559" width="1.01" height="88.614"/><rect class="cls-44" x="72.475" y="66.559" width="1.01" height="88.614"/><rect class="cls-45" x="71.465" y="66.559" width="1.01" height="88.614"/><rect class="cls-46" x="70.455" y="66.559" width="1.01" height="88.614"/><rect class="cls-47" x="69.446" y="66.559" width="1.01" height="88.614"/><rect class="cls-48" x="68.436" y="66.559" width="1.01" height="88.614"/><rect class="cls-49" x="67.426" y="66.559" width="1.01" height="88.614"/><rect class="cls-50" x="66.416" y="66.559" width="1.01" height="88.614"/><rect class="cls-51" x="65.407" y="66.559" width="1.01" height="88.614"/><rect class="cls-52" x="64.397" y="66.559" width="1.01" height="88.614"/><rect class="cls-53" x="63.387" y="66.559" width="1.01" height="88.614"/><rect class="cls-54" x="62.377" y="66.559" width="1.01" height="88.614"/><rect class="cls-55" x="61.367" y="66.559" width="1.01" height="88.614"/><rect class="cls-56" x="60.358" y="66.559" width="1.01" height="88.614"/><rect class="cls-57" x="59.348" y="66.559" width="1.01" height="88.614"/><rect class="cls-57" x="56.597" y="66.559" width="2.751" height="88.614"/></g></g><g class="cls-2"><g class="cls-60"><rect class="cls-4" x="152.113" y="57.006" width="3.06" height="88.614"/><rect class="cls-4" x="151.103" y="57.006" width="1.01" height="88.614"/><rect class="cls-4" x="150.093" y="57.006" width="1.01" height="88.614"/><rect class="cls-4" x="149.083" y="57.006" width="1.01" height="88.614"/><rect class="cls-4" x="148.073" y="57.006" width="1.01" height="88.614"/><rect class="cls-4" x="147.064" y="57.006" width="1.01" height="88.614"/><rect class="cls-4" x="146.054" y="57.006" width="1.01" height="88.614"/><rect class="cls-5" x="145.044" y="57.006" width="1.01" height="88.614"/><rect class="cls-5" x="144.034" y="57.006" width="1.01" height="88.614"/><rect class="cls-5" x="143.024" y="57.006" width="1.01" height="88.614"/><rect class="cls-5" x="142.015" y="57.006" width="1.01" height="88.614"/><rect class="cls-5" x="141.005" y="57.006" width="1.01" height="88.614"/><rect class="cls-5" x="139.995" y="57.006" width="1.01" height="88.614"/><rect class="cls-5" x="138.985" y="57.006" width="1.01" height="88.614"/><rect class="cls-6" x="137.976" y="57.006" width="1.01" height="88.614"/><rect class="cls-6" x="136.966" y="57.006" width="1.01" height="88.614"/><rect class="cls-6" x="135.956" y="57.006" width="1.01" height="88.614"/><rect class="cls-6" x="134.946" y="57.006" width="1.01" height="88.614"/><rect class="cls-6" x="133.936" y="57.006" width="1.01" height="88.614"/><rect class="cls-7" x="132.927" y="57.006" width="1.01" height="88.614"/><rect class="cls-7" x="131.917" y="57.006" width="1.01" height="88.614"/><rect class="cls-7" x="130.907" y="57.006" width="1.01" height="88.614"/><rect class="cls-8" x="129.897" y="57.006" width="1.01" height="88.614"/><rect class="cls-8" x="128.887" y="57.006" width="1.01" height="88.614"/><rect class="cls-9" x="127.878" y="57.006" width="1.01" height="88.614"/><rect class="cls-10" x="126.868" y="57.006" width="1.01" height="88.614"/><rect class="cls-10" x="125.858" y="57.006" width="1.01" height="88.614"/><rect class="cls-11" x="124.848" y="57.006" width="1.01" height="88.614"/><rect class="cls-12" x="123.838" y="57.006" width="1.01" height="88.614"/><rect class="cls-12" x="122.829" y="57.006" width="1.01" height="88.614"/><rect class="cls-13" x="121.819" y="57.006" width="1.01" height="88.614"/><rect class="cls-13" x="120.809" y="57.006" width="1.01" height="88.614"/><rect class="cls-14" x="119.799" y="57.006" width="1.01" height="88.614"/><rect class="cls-14" x="118.79" y="57.006" width="1.01" height="88.614"/><rect class="cls-15" x="117.78" y="57.006" width="1.01" height="88.614"/><rect class="cls-16" x="116.77" y="57.006" width="1.01" height="88.614"/><rect class="cls-16" x="115.76" y="57.006" width="1.01" height="88.614"/><rect class="cls-17" x="114.75" y="57.006" width="1.01" height="88.614"/><rect class="cls-17" x="113.741" y="57.006" width="1.01" height="88.614"/><rect class="cls-18" x="112.731" y="57.006" width="1.01" height="88.614"/><rect class="cls-19" x="111.721" y="57.006" width="1.01" height="88.614"/><rect class="cls-19" x="110.711" y="57.006" width="1.01" height="88.614"/><rect class="cls-20" x="109.701" y="57.006" width="1.01" height="88.614"/><rect class="cls-21" x="108.692" y="57.006" width="1.01" height="88.614"/><rect class="cls-21" x="107.682" y="57.006" width="1.01" height="88.614"/><rect class="cls-22" x="106.672" y="57.006" width="1.01" height="88.614"/><rect class="cls-23" x="105.662" y="57.006" width="1.01" height="88.614"/><rect class="cls-24" x="104.652" y="57.006" width="1.01" height="88.614"/><rect class="cls-24" x="103.643" y="57.006" width="1.01" height="88.614"/><rect class="cls-25" x="102.633" y="57.006" width="1.01" height="88.614"/><rect class="cls-26" x="101.623" y="57.006" width="1.01" height="88.614"/><rect class="cls-27" x="100.613" y="57.006" width="1.01" height="88.614"/><rect class="cls-28" x="99.603" y="57.006" width="1.01" height="88.614"/><rect class="cls-29" x="98.594" y="57.006" width="1.01" height="88.614"/><rect class="cls-30" x="97.584" y="57.006" width="1.01" height="88.614"/><rect class="cls-30" x="96.574" y="57.006" width="1.01" height="88.614"/><rect class="cls-31" x="95.564" y="57.006" width="1.01" height="88.614"/><rect class="cls-32" x="94.555" y="57.006" width="1.01" height="88.614"/><rect class="cls-33" x="93.545" y="57.006" width="1.01" height="88.614"/><rect class="cls-34" x="92.535" y="57.006" width="1.01" height="88.614"/><rect class="cls-35" x="91.525" y="57.006" width="1.01" height="88.614"/><rect class="cls-36" x="90.515" y="57.006" width="1.01" height="88.614"/><rect class="cls-37" x="89.506" y="57.006" width="1.01" height="88.614"/><rect class="cls-38" x="88.496" y="57.006" width="1.01" height="88.614"/><rect class="cls-39" x="87.486" y="57.006" width="1.01" height="88.614"/><rect class="cls-40" x="86.476" y="57.006" width="1.01" height="88.614"/><rect class="cls-41" x="85.466" y="57.006" width="1.01" height="88.614"/><rect class="cls-42" x="84.457" y="57.006" width="1.01" height="88.614"/><rect class="cls-43" x="83.447" y="57.006" width="1.01" height="88.614"/><rect class="cls-44" x="82.437" y="57.006" width="1.01" height="88.614"/><rect class="cls-45" x="81.427" y="57.006" width="1.01" height="88.614"/><rect class="cls-46" x="80.417" y="57.006" width="1.01" height="88.614"/><rect class="cls-47" x="79.408" y="57.006" width="1.01" height="88.614"/><rect class="cls-48" x="78.398" y="57.006" width="1.01" height="88.614"/><rect class="cls-49" x="77.388" y="57.006" width="1.01" height="88.614"/><rect class="cls-50" x="76.378" y="57.006" width="1.01" height="88.614"/><rect class="cls-51" x="75.369" y="57.006" width="1.01" height="88.614"/><rect class="cls-52" x="74.359" y="57.006" width="1.01" height="88.614"/><rect class="cls-53" x="73.349" y="57.006" width="1.01" height="88.614"/><rect class="cls-54" x="72.339" y="57.006" width="1.01" height="88.614"/><rect class="cls-55" x="71.329" y="57.006" width="1.01" height="88.614"/><rect class="cls-56" x="70.32" y="57.006" width="1.01" height="88.614"/><rect class="cls-57" x="69.31" y="57.006" width="1.01" height="88.614"/><rect class="cls-57" x="66.559" y="57.006" width="2.751" height="88.614"/></g></g><g class="cls-2"><g class="cls-61"><rect class="cls-4" x="130.381" y="47.17" width="3.06" height="88.614"/><rect class="cls-4" x="129.371" y="47.17" width="1.01" height="88.614"/><rect class="cls-4" x="128.361" y="47.17" width="1.01" height="88.614"/><rect class="cls-4" x="127.351" y="47.17" width="1.01" height="88.614"/><rect class="cls-4" x="126.342" y="47.17" width="1.01" height="88.614"/><rect class="cls-4" x="125.332" y="47.17" width="1.01" height="88.614"/><rect class="cls-4" x="124.322" y="47.17" width="1.01" height="88.614"/><rect class="cls-5" x="123.312" y="47.17" width="1.01" height="88.614"/><rect class="cls-5" x="122.302" y="47.17" width="1.01" height="88.614"/><rect class="cls-5" x="121.293" y="47.17" width="1.01" height="88.614"/><rect class="cls-5" x="120.283" y="47.17" width="1.01" height="88.614"/><rect class="cls-5" x="119.273" y="47.17" width="1.01" height="88.614"/><rect class="cls-5" x="118.263" y="47.17" width="1.01" height="88.614"/><rect class="cls-5" x="117.253" y="47.17" width="1.01" height="88.614"/><rect class="cls-6" x="116.244" y="47.17" width="1.01" height="88.614"/><rect class="cls-6" x="115.234" y="47.17" width="1.01" height="88.614"/><rect class="cls-6" x="114.224" y="47.17" width="1.01" height="88.614"/><rect class="cls-6" x="113.214" y="47.17" width="1.01" height="88.614"/><rect class="cls-6" x="112.204" y="47.17" width="1.01" height="88.614"/><rect class="cls-7" x="111.195" y="47.17" width="1.01" height="88.614"/><rect class="cls-7" x="110.185" y="47.17" width="1.01" height="88.614"/><rect class="cls-7" x="109.175" y="47.17" width="1.01" height="88.614"/><rect class="cls-8" x="108.165" y="47.17" width="1.01" height="88.614"/><rect class="cls-8" x="107.155" y="47.17" width="1.01" height="88.614"/><rect class="cls-9" x="106.146" y="47.17" width="1.01" height="88.614"/><rect class="cls-10" x="105.136" y="47.17" width="1.01" height="88.614"/><rect class="cls-10" x="104.126" y="47.17" width="1.01" height="88.614"/><rect class="cls-11" x="103.116" y="47.17" width="1.01" height="88.614"/><rect class="cls-12" x="102.107" y="47.17" width="1.01" height="88.614"/><rect class="cls-12" x="101.097" y="47.17" width="1.01" height="88.614"/><rect class="cls-13" x="100.087" y="47.17" width="1.01" height="88.614"/><rect class="cls-13" x="99.077" y="47.17" width="1.01" height="88.614"/><rect class="cls-14" x="98.067" y="47.17" width="1.01" height="88.614"/><rect class="cls-14" x="97.058" y="47.17" width="1.01" height="88.614"/><rect class="cls-15" x="96.048" y="47.17" width="1.01" height="88.614"/><rect class="cls-16" x="95.038" y="47.17" width="1.01" height="88.614"/><rect class="cls-16" x="94.028" y="47.17" width="1.01" height="88.614"/><rect class="cls-17" x="93.018" y="47.17" width="1.01" height="88.614"/><rect class="cls-17" x="92.009" y="47.17" width="1.01" height="88.614"/><rect class="cls-18" x="90.999" y="47.17" width="1.01" height="88.614"/><rect class="cls-19" x="89.989" y="47.17" width="1.01" height="88.614"/><rect class="cls-19" x="88.979" y="47.17" width="1.01" height="88.614"/><rect class="cls-20" x="87.969" y="47.17" width="1.01" height="88.614"/><rect class="cls-21" x="86.96" y="47.17" width="1.01" height="88.614"/><rect class="cls-21" x="85.95" y="47.17" width="1.01" height="88.614"/><rect class="cls-22" x="84.94" y="47.17" width="1.01" height="88.614"/><rect class="cls-23" x="83.93" y="47.17" width="1.01" height="88.614"/><rect class="cls-24" x="82.921" y="47.17" width="1.01" height="88.614"/><rect class="cls-24" x="81.911" y="47.17" width="1.01" height="88.614"/><rect class="cls-25" x="80.901" y="47.17" width="1.01" height="88.614"/><rect class="cls-26" x="79.891" y="47.17" width="1.01" height="88.614"/><rect class="cls-27" x="78.881" y="47.17" width="1.01" height="88.614"/><rect class="cls-28" x="77.872" y="47.17" width="1.01" height="88.614"/><rect class="cls-29" x="76.862" y="47.17" width="1.01" height="88.614"/><rect class="cls-30" x="75.852" y="47.17" width="1.01" height="88.614"/><rect class="cls-30" x="74.842" y="47.17" width="1.01" height="88.614"/><rect class="cls-31" x="73.832" y="47.17" width="1.01" height="88.614"/><rect class="cls-32" x="72.823" y="47.17" width="1.01" height="88.614"/><rect class="cls-33" x="71.813" y="47.17" width="1.01" height="88.614"/><rect class="cls-34" x="70.803" y="47.17" width="1.01" height="88.614"/><rect class="cls-35" x="69.793" y="47.17" width="1.01" height="88.614"/><rect class="cls-36" x="68.783" y="47.17" width="1.01" height="88.614"/><rect class="cls-37" x="67.774" y="47.17" width="1.01" height="88.614"/><rect class="cls-38" x="66.764" y="47.17" width="1.01" height="88.614"/><rect class="cls-39" x="65.754" y="47.17" width="1.01" height="88.614"/><rect class="cls-40" x="64.744" y="47.17" width="1.01" height="88.614"/><rect class="cls-41" x="63.735" y="47.17" width="1.01" height="88.614"/><rect class="cls-42" x="62.725" y="47.17" width="1.01" height="88.614"/><rect class="cls-43" x="61.715" y="47.17" width="1.01" height="88.614"/><rect class="cls-44" x="60.705" y="47.17" width="1.01" height="88.614"/><rect class="cls-45" x="59.695" y="47.17" width="1.01" height="88.614"/><rect class="cls-46" x="58.686" y="47.17" width="1.01" height="88.614"/><rect class="cls-47" x="57.676" y="47.17" width="1.01" height="88.614"/><rect class="cls-48" x="56.666" y="47.17" width="1.01" height="88.614"/><rect class="cls-49" x="55.656" y="47.17" width="1.01" height="88.614"/><rect class="cls-50" x="54.646" y="47.17" width="1.01" height="88.614"/><rect class="cls-51" x="53.637" y="47.17" width="1.01" height="88.614"/><rect class="cls-52" x="52.627" y="47.17" width="1.01" height="88.614"/><rect class="cls-53" x="51.617" y="47.17" width="1.01" height="88.614"/><rect class="cls-54" x="50.607" y="47.17" width="1.01" height="88.614"/><rect class="cls-55" x="49.597" y="47.17" width="1.01" height="88.614"/><rect class="cls-56" x="48.588" y="47.17" width="1.01" height="88.614"/><rect class="cls-57" x="47.578" y="47.17" width="1.01" height="88.614"/><rect class="cls-57" x="44.827" y="47.17" width="2.751" height="88.614"/></g></g><g class="cls-2"><g class="cls-62"><rect class="cls-4" x="137.443" y="47.17" width="3.06" height="88.614"/><rect class="cls-4" x="136.433" y="47.17" width="1.01" height="88.614"/><rect class="cls-4" x="135.423" y="47.17" width="1.01" height="88.614"/><rect class="cls-4" x="134.413" y="47.17" width="1.01" height="88.614"/><rect class="cls-4" x="133.404" y="47.17" width="1.01" height="88.614"/><rect class="cls-4" x="132.394" y="47.17" width="1.01" height="88.614"/><rect class="cls-4" x="131.384" y="47.17" width="1.01" height="88.614"/><rect class="cls-5" x="130.374" y="47.17" width="1.01" height="88.614"/><rect class="cls-5" x="129.365" y="47.17" width="1.01" height="88.614"/><rect class="cls-5" x="128.355" y="47.17" width="1.01" height="88.614"/><rect class="cls-5" x="127.345" y="47.17" width="1.01" height="88.614"/><rect class="cls-5" x="126.335" y="47.17" width="1.01" height="88.614"/><rect class="cls-5" x="125.325" y="47.17" width="1.01" height="88.614"/><rect class="cls-5" x="124.316" y="47.17" width="1.01" height="88.614"/><rect class="cls-6" x="123.306" y="47.17" width="1.01" height="88.614"/><rect class="cls-6" x="122.296" y="47.17" width="1.01" height="88.614"/><rect class="cls-6" x="121.286" y="47.17" width="1.01" height="88.614"/><rect class="cls-6" x="120.276" y="47.17" width="1.01" height="88.614"/><rect class="cls-6" x="119.267" y="47.17" width="1.01" height="88.614"/><rect class="cls-7" x="118.257" y="47.17" width="1.01" height="88.614"/><rect class="cls-7" x="117.247" y="47.17" width="1.01" height="88.614"/><rect class="cls-7" x="116.237" y="47.17" width="1.01" height="88.614"/><rect class="cls-8" x="115.227" y="47.17" width="1.01" height="88.614"/><rect class="cls-8" x="114.218" y="47.17" width="1.01" height="88.614"/><rect class="cls-9" x="113.208" y="47.17" width="1.01" height="88.614"/><rect class="cls-10" x="112.198" y="47.17" width="1.01" height="88.614"/><rect class="cls-10" x="111.188" y="47.17" width="1.01" height="88.614"/><rect class="cls-11" x="110.179" y="47.17" width="1.01" height="88.614"/><rect class="cls-12" x="109.169" y="47.17" width="1.01" height="88.614"/><rect class="cls-12" x="108.159" y="47.17" width="1.01" height="88.614"/><rect class="cls-13" x="107.149" y="47.17" width="1.01" height="88.614"/><rect class="cls-13" x="106.139" y="47.17" width="1.01" height="88.614"/><rect class="cls-14" x="105.13" y="47.17" width="1.01" height="88.614"/><rect class="cls-14" x="104.12" y="47.17" width="1.01" height="88.614"/><rect class="cls-15" x="103.11" y="47.17" width="1.01" height="88.614"/><rect class="cls-16" x="102.1" y="47.17" width="1.01" height="88.614"/><rect class="cls-16" x="101.09" y="47.17" width="1.01" height="88.614"/><rect class="cls-17" x="100.081" y="47.17" width="1.01" height="88.614"/><rect class="cls-17" x="99.071" y="47.17" width="1.01" height="88.614"/><rect class="cls-18" x="98.061" y="47.17" width="1.01" height="88.614"/><rect class="cls-19" x="97.051" y="47.17" width="1.01" height="88.614"/><rect class="cls-19" x="96.041" y="47.17" width="1.01" height="88.614"/><rect class="cls-20" x="95.032" y="47.17" width="1.01" height="88.614"/><rect class="cls-21" x="94.022" y="47.17" width="1.01" height="88.614"/><rect class="cls-21" x="93.012" y="47.17" width="1.01" height="88.614"/><rect class="cls-22" x="92.002" y="47.17" width="1.01" height="88.614"/><rect class="cls-23" x="90.992" y="47.17" width="1.01" height="88.614"/><rect class="cls-24" x="89.983" y="47.17" width="1.01" height="88.614"/><rect class="cls-24" x="88.973" y="47.17" width="1.01" height="88.614"/><rect class="cls-25" x="87.963" y="47.17" width="1.01" height="88.614"/><rect class="cls-26" x="86.953" y="47.17" width="1.01" height="88.614"/><rect class="cls-27" x="85.944" y="47.17" width="1.01" height="88.614"/><rect class="cls-28" x="84.934" y="47.17" width="1.01" height="88.614"/><rect class="cls-29" x="83.924" y="47.17" width="1.01" height="88.614"/><rect class="cls-30" x="82.914" y="47.17" width="1.01" height="88.614"/><rect class="cls-30" x="81.904" y="47.17" width="1.01" height="88.614"/><rect class="cls-31" x="80.895" y="47.17" width="1.01" height="88.614"/><rect class="cls-32" x="79.885" y="47.17" width="1.01" height="88.614"/><rect class="cls-33" x="78.875" y="47.17" width="1.01" height="88.614"/><rect class="cls-34" x="77.865" y="47.17" width="1.01" height="88.614"/><rect class="cls-35" x="76.855" y="47.17" width="1.01" height="88.614"/><rect class="cls-36" x="75.846" y="47.17" width="1.01" height="88.614"/><rect class="cls-37" x="74.836" y="47.17" width="1.01" height="88.614"/><rect class="cls-38" x="73.826" y="47.17" width="1.01" height="88.614"/><rect class="cls-39" x="72.816" y="47.17" width="1.01" height="88.614"/><rect class="cls-40" x="71.806" y="47.17" width="1.01" height="88.614"/><rect class="cls-41" x="70.797" y="47.17" width="1.01" height="88.614"/><rect class="cls-42" x="69.787" y="47.17" width="1.01" height="88.614"/><rect class="cls-43" x="68.777" y="47.17" width="1.01" height="88.614"/><rect class="cls-44" x="67.767" y="47.17" width="1.01" height="88.614"/><rect class="cls-45" x="66.758" y="47.17" width="1.01" height="88.614"/><rect class="cls-46" x="65.748" y="47.17" width="1.01" height="88.614"/><rect class="cls-47" x="64.738" y="47.17" width="1.01" height="88.614"/><rect class="cls-48" x="63.728" y="47.17" width="1.01" height="88.614"/><rect class="cls-49" x="62.718" y="47.17" width="1.01" height="88.614"/><rect class="cls-50" x="61.709" y="47.17" width="1.01" height="88.614"/><rect class="cls-51" x="60.699" y="47.17" width="1.01" height="88.614"/><rect class="cls-52" x="59.689" y="47.17" width="1.01" height="88.614"/><rect class="cls-53" x="58.679" y="47.17" width="1.01" height="88.614"/><rect class="cls-54" x="57.669" y="47.17" width="1.01" height="88.614"/><rect class="cls-55" x="56.66" y="47.17" width="1.01" height="88.614"/><rect class="cls-56" x="55.65" y="47.17" width="1.01" height="88.614"/><rect class="cls-57" x="54.64" y="47.17" width="1.01" height="88.614"/><rect class="cls-57" x="51.889" y="47.17" width="2.751" height="88.614"/></g></g><g class="cls-63"><polygon class="cls-64" points="145.211 102.858 129.389 52.88 145.211 52.88 145.211 102.858"/><polygon class="cls-64" points="145.211 104.992 128.713 52.88 129.389 52.88 145.211 102.858 145.211 104.992"/><polygon class="cls-65" points="145.211 107.127 128.037 52.88 128.713 52.88 145.211 104.992 145.211 107.127"/><polygon class="cls-66" points="145.211 109.262 127.361 52.88 128.037 52.88 145.211 107.127 145.211 109.262"/><polygon class="cls-67" points="145.211 111.397 126.685 52.88 127.361 52.88 145.211 109.262 145.211 111.397"/><polygon class="cls-68" points="145.211 113.532 126.009 52.88 126.685 52.88 145.211 111.397 145.211 113.532"/><polygon class="cls-69" points="145.211 115.667 125.333 52.88 126.009 52.88 145.211 113.532 145.211 115.667"/><polygon class="cls-70" points="145.211 117.802 124.658 52.88 125.333 52.88 145.211 115.667 145.211 117.802"/><polygon class="cls-71" points="145.211 119.937 123.982 52.88 124.658 52.88 145.211 117.802 145.211 119.937"/><polygon class="cls-72" points="145.211 122.071 123.306 52.88 123.982 52.88 145.211 119.937 145.211 122.071"/><polygon class="cls-73" points="145.211 124.206 122.63 52.88 123.306 52.88 145.211 122.071 145.211 124.206"/><polygon class="cls-74" points="145.211 126.341 121.954 52.88 122.63 52.88 145.211 124.206 145.211 126.341"/><polygon class="cls-75" points="145.211 128.476 121.278 52.88 121.954 52.88 145.211 126.341 145.211 128.476"/><polygon class="cls-76" points="145.211 130.611 120.602 52.88 121.278 52.88 145.211 128.476 145.211 130.611"/><polygon class="cls-77" points="145.211 132.746 119.926 52.88 120.602 52.88 145.211 130.611 145.211 132.746"/><polygon class="cls-78" points="145.211 134.881 119.251 52.88 119.926 52.88 145.211 132.746 145.211 134.881"/><polygon class="cls-79" points="145.211 134.956 144.618 135.144 118.575 52.88 119.251 52.88 145.211 134.881 145.211 134.956"/><polygon class="cls-80" points="144.618 135.144 144.004 135.338 117.899 52.88 118.575 52.88 144.618 135.144"/><polygon class="cls-81" points="144.004 135.338 143.39 135.532 117.223 52.88 117.899 52.88 144.004 135.338"/><polygon class="cls-82" points="143.39 135.532 142.775 135.727 116.547 52.88 117.223 52.88 143.39 135.532"/><polygon class="cls-83" points="142.775 135.727 142.161 135.921 115.871 52.88 116.547 52.88 142.775 135.727"/><polygon class="cls-84" points="142.161 135.921 141.547 136.116 115.195 52.88 115.871 52.88 142.161 135.921"/><polygon class="cls-85" points="141.547 136.116 140.932 136.31 114.519 52.88 115.195 52.88 141.547 136.116"/><polygon class="cls-86" points="140.932 136.31 140.318 136.505 113.844 52.88 114.519 52.88 140.932 136.31"/><polygon class="cls-87" points="140.318 136.505 139.704 136.699 113.168 52.88 113.844 52.88 140.318 136.505"/><polygon class="cls-88" points="139.704 136.699 139.09 136.894 112.492 52.88 113.168 52.88 139.704 136.699"/><polygon class="cls-89" points="139.09 136.894 138.475 137.088 111.816 52.88 112.492 52.88 139.09 136.894"/><polygon class="cls-90" points="138.475 137.088 137.861 137.283 111.14 52.88 111.816 52.88 138.475 137.088"/><polygon class="cls-91" points="137.861 137.283 137.247 137.477 110.464 52.88 111.14 52.88 137.861 137.283"/><polygon class="cls-92" points="137.247 137.477 136.632 137.672 109.788 52.88 110.464 52.88 137.247 137.477"/><polygon class="cls-93" points="136.632 137.672 136.018 137.866 109.112 52.88 109.788 52.88 136.632 137.672"/><polygon class="cls-94" points="136.018 137.866 135.404 138.061 108.437 52.88 109.112 52.88 136.018 137.866"/><polygon class="cls-95" points="135.404 138.061 134.789 138.255 107.761 52.88 108.437 52.88 135.404 138.061"/><polygon class="cls-96" points="134.789 138.255 134.175 138.45 107.085 52.88 107.761 52.88 134.789 138.255"/><polygon class="cls-97" points="134.175 138.45 133.561 138.644 106.409 52.88 107.085 52.88 134.175 138.45"/><polygon class="cls-98" points="133.561 138.644 132.946 138.839 105.733 52.88 106.409 52.88 133.561 138.644"/><polygon class="cls-99" points="132.946 138.839 132.332 139.033 105.057 52.88 105.733 52.88 132.946 138.839"/><polygon class="cls-100" points="132.332 139.033 131.718 139.228 104.381 52.88 105.057 52.88 132.332 139.033"/><polygon class="cls-101" points="131.718 139.228 131.104 139.422 103.705 52.88 104.381 52.88 131.718 139.228"/><polygon class="cls-102" points="131.104 139.422 130.489 139.617 103.03 52.88 103.705 52.88 131.104 139.422"/><polygon class="cls-103" points="130.489 139.617 129.875 139.811 102.354 52.88 103.03 52.88 130.489 139.617"/><polygon class="cls-104" points="129.875 139.811 129.261 140.006 101.678 52.88 102.354 52.88 129.875 139.811"/><polygon class="cls-105" points="129.261 140.006 128.646 140.2 101.002 52.88 101.678 52.88 129.261 140.006"/><polygon class="cls-106" points="128.646 140.2 128.032 140.394 100.326 52.88 101.002 52.88 128.646 140.2"/><polygon class="cls-107" points="128.032 140.394 127.418 140.589 99.65 52.88 100.326 52.88 128.032 140.394"/><polygon class="cls-108" points="127.418 140.589 126.803 140.783 98.974 52.88 99.65 52.88 127.418 140.589"/><polygon class="cls-109" points="126.803 140.783 126.189 140.978 98.298 52.88 98.974 52.88 126.803 140.783"/><polygon class="cls-110" points="126.189 140.978 125.575 141.172 97.623 52.88 98.298 52.88 126.189 140.978"/><polygon class="cls-111" points="125.575 141.172 124.961 141.367 96.947 52.88 97.623 52.88 125.575 141.172"/><polygon class="cls-112" points="124.961 141.367 124.56 141.494 124.325 141.494 96.271 52.88 96.947 52.88 124.961 141.367"/><polygon class="cls-113" points="123.649 141.494 95.595 52.88 96.271 52.88 124.325 141.494 123.649 141.494"/><polygon class="cls-114" points="122.973 141.494 94.919 52.88 95.595 52.88 123.649 141.494 122.973 141.494"/><polygon class="cls-115" points="122.297 141.494 94.243 52.88 94.919 52.88 122.973 141.494 122.297 141.494"/><polygon class="cls-116" points="121.621 141.494 93.567 52.88 94.243 52.88 122.297 141.494 121.621 141.494"/><polygon class="cls-117" points="120.945 141.494 92.891 52.88 93.567 52.88 121.621 141.494 120.945 141.494"/><polygon class="cls-118" points="120.27 141.494 92.216 52.88 92.891 52.88 120.945 141.494 120.27 141.494"/><polygon class="cls-119" points="119.594 141.494 91.54 52.88 92.216 52.88 120.27 141.494 119.594 141.494"/><polygon class="cls-120" points="118.918 141.494 90.864 52.88 91.54 52.88 119.594 141.494 118.918 141.494"/><polygon class="cls-121" points="118.242 141.494 90.188 52.88 90.864 52.88 118.918 141.494 118.242 141.494"/><polygon class="cls-122" points="117.566 141.494 89.512 52.88 90.188 52.88 118.242 141.494 117.566 141.494"/><polygon class="cls-123" points="116.89 141.494 88.836 52.88 89.512 52.88 117.566 141.494 116.89 141.494"/><polygon class="cls-124" points="116.214 141.494 88.16 52.88 88.836 52.88 116.89 141.494 116.214 141.494"/><polygon class="cls-125" points="115.538 141.494 87.484 52.88 88.16 52.88 116.214 141.494 115.538 141.494"/><polygon class="cls-126" points="114.863 141.494 86.809 52.88 87.484 52.88 115.538 141.494 114.863 141.494"/><polygon class="cls-127" points="114.187 141.494 86.133 52.88 86.809 52.88 114.863 141.494 114.187 141.494"/><polygon class="cls-128" points="113.511 141.494 85.457 52.88 86.133 52.88 114.187 141.494 113.511 141.494"/><polygon class="cls-129" points="112.835 141.494 84.781 52.88 85.457 52.88 113.511 141.494 112.835 141.494"/><polygon class="cls-129" points="112.159 141.494 84.105 52.88 84.781 52.88 112.835 141.494 112.159 141.494"/><polygon class="cls-130" points="111.483 141.494 83.429 52.88 84.105 52.88 112.159 141.494 111.483 141.494"/><polygon class="cls-131" points="110.807 141.494 82.753 52.88 83.429 52.88 111.483 141.494 110.807 141.494"/><polygon class="cls-132" points="110.131 141.494 82.077 52.88 82.753 52.88 110.807 141.494 110.131 141.494"/><polygon class="cls-133" points="109.456 141.494 81.402 52.88 82.077 52.88 110.131 141.494 109.456 141.494"/><polygon class="cls-134" points="108.78 141.494 80.726 52.88 81.402 52.88 109.456 141.494 108.78 141.494"/><polygon class="cls-135" points="108.104 141.494 80.05 52.88 80.726 52.88 108.78 141.494 108.104 141.494"/><polygon class="cls-136" points="107.428 141.494 79.374 52.88 80.05 52.88 108.104 141.494 107.428 141.494"/><polygon class="cls-137" points="106.752 141.494 78.698 52.88 79.374 52.88 107.428 141.494 106.752 141.494"/><polygon class="cls-137" points="106.076 141.494 78.022 52.88 78.698 52.88 106.752 141.494 106.076 141.494"/><polygon class="cls-138" points="105.4 141.494 77.346 52.88 78.022 52.88 106.076 141.494 105.4 141.494"/><polygon class="cls-138" points="104.725 141.494 76.723 53.046 77.248 52.88 77.346 52.88 105.4 141.494 104.725 141.494"/><polygon class="cls-139" points="104.049 141.494 76.109 53.241 76.723 53.046 104.725 141.494 104.049 141.494"/><polygon class="cls-140" points="103.373 141.494 75.495 53.435 76.109 53.241 104.049 141.494 103.373 141.494"/><polygon class="cls-141" points="102.697 141.494 74.88 53.63 75.495 53.435 103.373 141.494 102.697 141.494"/><polygon class="cls-141" points="102.021 141.494 74.266 53.824 74.88 53.63 102.697 141.494 102.021 141.494"/><polygon class="cls-142" points="101.345 141.494 73.652 54.018 74.266 53.824 102.021 141.494 101.345 141.494"/><polygon class="cls-142" points="100.669 141.494 73.037 54.213 73.652 54.018 101.345 141.494 100.669 141.494"/><polygon class="cls-143" points="99.993 141.494 72.423 54.407 73.037 54.213 100.669 141.494 99.993 141.494"/><polygon class="cls-143" points="99.318 141.494 71.809 54.602 72.423 54.407 99.993 141.494 99.318 141.494"/><polygon class="cls-144" points="98.642 141.494 71.194 54.796 71.809 54.602 99.318 141.494 98.642 141.494"/><polygon class="cls-144" points="97.966 141.494 70.58 54.991 71.194 54.796 98.642 141.494 97.966 141.494"/><polygon class="cls-144" points="97.29 141.494 69.966 55.185 70.58 54.991 97.966 141.494 97.29 141.494"/><polygon class="cls-145" points="96.614 141.494 69.351 55.38 69.966 55.185 97.29 141.494 96.614 141.494"/><polygon class="cls-145" points="95.938 141.494 68.737 55.574 69.351 55.38 96.614 141.494 95.938 141.494"/><polygon class="cls-145" points="95.262 141.494 68.123 55.769 68.737 55.574 95.938 141.494 95.262 141.494"/><polygon class="cls-146" points="94.586 141.494 67.509 55.963 68.123 55.769 95.262 141.494 94.586 141.494"/><polygon class="cls-147" points="93.911 141.494 66.894 56.158 67.509 55.963 94.586 141.494 93.911 141.494"/><polygon class="cls-148" points="93.235 141.494 66.28 56.352 66.894 56.158 93.911 141.494 93.235 141.494"/><polygon class="cls-148" points="92.559 141.494 65.666 56.547 66.28 56.352 93.235 141.494 92.559 141.494"/><polygon class="cls-148" points="91.883 141.494 65.051 56.741 65.666 56.547 92.559 141.494 91.883 141.494"/><polygon class="cls-149" points="91.207 141.494 64.437 56.936 65.051 56.741 91.883 141.494 91.207 141.494"/><polygon class="cls-150" points="90.531 141.494 63.823 57.13 64.437 56.936 91.207 141.494 90.531 141.494"/><polygon class="cls-150" points="89.855 141.494 63.208 57.325 63.823 57.13 90.531 141.494 89.855 141.494"/><polygon class="cls-150" points="89.179 141.494 62.594 57.519 63.208 57.325 89.855 141.494 89.179 141.494"/><polygon class="cls-151" points="88.504 141.494 61.98 57.714 62.594 57.519 89.179 141.494 88.504 141.494"/><polygon class="cls-151" points="87.828 141.494 61.366 57.908 61.98 57.714 88.504 141.494 87.828 141.494"/><polygon class="cls-151" points="87.152 141.494 60.751 58.103 61.366 57.908 87.828 141.494 87.152 141.494"/><polygon class="cls-151" points="86.476 141.494 60.137 58.297 60.751 58.103 87.152 141.494 86.476 141.494"/><polygon class="cls-151" points="85.8 141.494 59.523 58.492 60.137 58.297 86.476 141.494 85.8 141.494"/><polygon class="cls-152" points="85.124 141.494 58.908 58.686 59.523 58.492 85.8 141.494 85.124 141.494"/><polygon class="cls-153" points="84.448 141.494 58.294 58.88 58.908 58.686 85.124 141.494 84.448 141.494"/><polygon class="cls-153" points="83.772 141.494 57.68 59.075 58.294 58.88 84.448 141.494 83.772 141.494"/><polygon class="cls-153" points="83.097 141.494 57.065 59.269 57.68 59.075 83.772 141.494 83.097 141.494"/><polygon class="cls-153" points="82.421 141.494 56.597 59.925 56.597 59.418 57.065 59.269 83.097 141.494 82.421 141.494"/><polygon class="cls-154" points="81.745 141.494 56.597 62.06 56.597 59.925 82.421 141.494 81.745 141.494"/><polygon class="cls-154" points="81.069 141.494 56.597 64.195 56.597 62.06 81.745 141.494 81.069 141.494"/><polygon class="cls-154" points="80.393 141.494 56.597 66.329 56.597 64.195 81.069 141.494 80.393 141.494"/><polygon class="cls-155" points="79.717 141.494 56.597 68.464 56.597 66.329 80.393 141.494 79.717 141.494"/><polygon class="cls-155" points="79.041 141.494 56.597 70.599 56.597 68.464 79.717 141.494 79.041 141.494"/><polygon class="cls-155" points="78.365 141.494 56.597 72.734 56.597 70.599 79.041 141.494 78.365 141.494"/><polygon class="cls-155" points="77.69 141.494 56.597 74.869 56.597 72.734 78.365 141.494 77.69 141.494"/><polygon class="cls-155" points="77.014 141.494 56.597 77.004 56.597 74.869 77.69 141.494 77.014 141.494"/><polygon class="cls-155" points="76.338 141.494 56.597 79.139 56.597 77.004 77.014 141.494 76.338 141.494"/><polygon class="cls-155" points="75.662 141.494 56.597 81.274 56.597 79.139 76.338 141.494 75.662 141.494"/><polygon class="cls-156" points="74.986 141.494 56.597 83.408 56.597 81.274 75.662 141.494 74.986 141.494"/><polygon class="cls-156" points="74.31 141.494 56.597 85.543 56.597 83.408 74.986 141.494 74.31 141.494"/><polygon class="cls-156" points="73.634 141.494 56.597 87.678 56.597 85.543 74.31 141.494 73.634 141.494"/><polygon class="cls-156" points="72.958 141.494 56.597 89.813 56.597 87.678 73.634 141.494 72.958 141.494"/><polygon class="cls-156" points="72.283 141.494 56.597 91.948 56.597 89.813 72.958 141.494 72.283 141.494"/><polygon class="cls-156" points="71.607 141.494 56.597 94.083 56.597 91.948 72.283 141.494 71.607 141.494"/><polygon class="cls-156" points="70.931 141.494 56.597 96.218 56.597 94.083 71.607 141.494 70.931 141.494"/><polygon class="cls-156" points="70.255 141.494 56.597 98.353 56.597 96.218 70.931 141.494 70.255 141.494"/><polygon class="cls-156" points="56.597 98.353 70.255 141.494 56.597 141.494 56.597 98.353"/></g></g></g></g><g id="Layer_6" data-name="Layer 6"><g class="cls-157"><path class="cls-158" d="M109.633,121.256c-.125-3.746-.015-7.51-.015-11.257v-5.934c0-.6,0-1.2.039-1.8a3.628,3.628,0,0,0,.069-.733c.011.042-.177.972-.044.431.114-.463.188-.932.316-1.394.11-.395.248-.779.375-1.169.3-.929-.116.21-.112.236-.03-.182.3-.615.374-.766q.274-.522.59-1.019c.119-.187.249-.366.371-.551.534-.807-.17.25-.181.229-.044-.079.654-.73.763-.839.151-.152.311-.294.464-.444.751-.733-.02.152-.154.074.048.028.928-.625,1.047-.694.134-.079.276-.147.409-.227.264-.157.754-.171.106-.082-.78.108.338-.11.567-.178.257-.076,1.7-.355.862-.23-.911.135.432,0,.6,0,.195,0,.822.15.952.046-.08.064-1.256-.26-.4-.041.2.051.406.086.608.139.291.077.921.444,1.179.39-.492.1-.881-.44-.345-.118.178.106.369.194.548.3.315.184.6.425.919.6.554.308-.692-.663-.266-.192.141.156.321.284.474.429.306.292.562.68.887.941.5.4-.513-.785-.173-.239.117.187.256.361.377.546.215.327.417.663.6,1.008.107.2.2.406.308.606.282.521.258.062-.091-.25.251.224.354.987.451,1.323.133.458.218.924.332,1.386.129.517-.172.437-.013-.253a2.345,2.345,0,0,0,.054.549c.04.473.052.945.055,1.419.011,1.544,0,3.088,0,4.632,0,4.365.127,8.75-.015,13.112a5.041,5.041,0,0,0,5,5,5.1,5.1,0,0,0,5-5c.135-4.135.015-8.29.015-12.427,0-5.755.178-11.6-3.344-16.564a16.585,16.585,0,0,0-11.852-7.26A15.29,15.29,0,0,0,105.22,89.5a19.669,19.669,0,0,0-5.563,12.761c-.108,1.552-.039,3.129-.039,4.684,0,4.763-.144,9.55.015,14.312a5,5,0,0,0,10,0Z"/></g><g class="cls-157"><path class="cls-158" d="M109.6,121.239c.134-4.135.015-8.29.015-12.427,0-5.755.178-11.6-3.344-16.564a16.589,16.589,0,0,0-11.852-7.26A15.29,15.29,0,0,0,82.3,89.5a19.67,19.67,0,0,0-5.564,12.761c-.108,1.552-.039,3.129-.039,4.684,0,4.763-.143,9.55.016,14.312a5,5,0,0,0,10,0c-.125-3.746-.016-7.51-.016-11.257v-5.934c0-.6,0-1.2.039-1.8a3.633,3.633,0,0,0,.07-.733c.01.042-.178.972-.045.431.114-.463.189-.932.316-1.394.11-.395.248-.779.375-1.169.3-.929-.116.21-.112.236-.03-.182.3-.615.375-.766q.273-.522.589-1.019c.12-.187.249-.366.372-.551.534-.807-.17.25-.182.229-.044-.079.654-.73.763-.839.151-.152.311-.294.464-.444.751-.733-.02.152-.154.074.048.028.928-.625,1.047-.694.135-.079.276-.147.41-.227.263-.157.753-.171.105-.082-.78.108.338-.11.568-.178.257-.076,1.7-.355.862-.23-.912.135.431,0,.6,0,.194,0,.822.15.952.046-.081.064-1.257-.26-.4-.041.2.051.406.086.607.139.292.077.921.444,1.18.39-.492.1-.882-.44-.345-.118.177.106.368.194.547.3.316.184.6.425.92.6.553.308-.693-.663-.266-.192.141.156.321.284.474.429.3.292.562.68.887.941.494.4-.514-.785-.173-.239.116.187.256.361.377.546q.323.491.6,1.008c.108.2.2.406.309.606.282.521.258.062-.092-.25.251.224.355.987.452,1.323.133.458.217.924.332,1.386.128.517-.172.437-.013-.253a2.293,2.293,0,0,0,.054.549c.039.473.051.945.055,1.419.01,1.544,0,3.088,0,4.632,0,4.365.127,8.75-.015,13.112a5.039,5.039,0,0,0,5,5,5.1,5.1,0,0,0,5-5Z"/></g><circle class="cls-159" cx="76.814" cy="83.559" r="3.535"/><circle class="cls-160" cx="84.227" cy="70.52" r="7.038"/><path class="cls-161" d="M142.378,116.725a4.775,4.775,0,0,0,4.113-.2,4.717,4.717,0,0,0,2.014-5.278"/><path class="cls-161" d="M142.378,116.725a4.466,4.466,0,0,1,6.127-5.476"/><path class="cls-161" d="M61.015,72.372a4.762,4.762,0,0,0,2.51-3.251,4.706,4.706,0,0,0-2.7-4.943"/><path class="cls-161" d="M61.015,72.372a4.454,4.454,0,0,1-.2-8.194"/><path class="cls-161" d="M143.847,118.279a3.234,3.234,0,0,0-2.523-1.185,3.193,3.193,0,0,0-2.877,2.519"/><path class="cls-161" d="M143.847,118.279a3.252,3.252,0,0,1-1.669,2.239,3.22,3.22,0,0,1-3.731-.905"/></g></svg>